# xmcd
#
# Track frame offsets:
# 150
# 11452
# 22205
# 37868
# 47056
# 61751
# 71162
# 81322
# 92627
# 102940
# 116519
# 126420
#
# Disc length: 1802 seconds
#
#
# Revision: 0
# Processed by: cddbd v1.5.2PL0 Copyright (c) Steve Scherf et al.
# Submitted via: FreeRIP 2.944 
#
DISCID=9c07080c
DTITLE=Trini Lopez - Welcome To Trini Country
DYEAR=2006
DGENRE=Country
TTITLE0=Gentle On My Mind
TTITLE1=Crazy Arms
TTITLE2=Devil Woman
TTITLE3=Once A Day
TTITLE4=Green, Green Grass Of Home
TTITLE5=Good Old Mountain Dew
TTITLE6=Flowers On The Wall
TTITLE7=If The Whole World Stopped Lovin'
TTITLE8=Lonely Weekends
TTITLE9=Four Strong Winds
TTITLE10=Shanghied
TTITLE11=Mental Journey
EXTD=
EXTT0=
EXTT1=
EXTT2=
EXTT3=
EXTT4=
EXTT5=
EXTT6=
EXTT7=
EXTT8=
EXTT9=
EXTT10=
EXTT11=
PLAYORDER=
